<svg xmlns="http://www.w3.org/2000/svg" viewBox="0 0 800 500" role="img" aria-labelledby="t d">
<title id="t">Mãos protegendo uma muda</title>
<desc id="d">Ilustração vetorial criada para o projeto acadêmico ONG Solaris.</desc>
<rect width="800" height="500" rx="24" fill="#E5F5EF"/>

<circle cx="625" cy="120" r="82" fill="#F3B51B"/>
<path d="M0 390 C170 330 290 350 420 400 C560 455 670 430 800 360 V500 H0Z" fill="#8BC9BB"/>
<path d="M535 390 C505 325 505 260 540 205" fill="none" stroke="#078B72" stroke-width="18" stroke-linecap="round"/>
<path d="M540 270 C475 225 435 235 405 275 C465 295 510 295 540 270Z" fill="#2FA58E"/>
<path d="M540 245 C590 185 650 185 680 225 C625 250 575 258 540 245Z" fill="#078B72"/>
<path d="M520 395 C560 350 620 345 665 380 C610 405 560 410 520 395Z" fill="#2FA58E"/>
<path d="M475 430 C450 390 420 370 385 365" fill="none" stroke="#8B5A3C" stroke-width="26" stroke-linecap="round"/>
<path d="M385 365 C345 335 325 300 330 260 C375 275 405 310 410 350Z" fill="#C98655"/>

</svg>